Coordinates
version=1
nRows=14
nColumns=63
inDegrees=yes

Units are S.I. units (second, meters, Newtons, ...)
If the header above contains a line with 'inDegrees', this indicates whether rotational values are in degrees (yes) or radians (no).

endheader
time	pelvis_tilt	pelvis_list	pelvis_rotation	pelvis_tx	pelvis_ty	pelvis_tz	hip_flexion_r	hip_adduction_r	hip_rotation_r	knee_angle_r	knee_angle_r_beta	ankle_angle_r	subtalar_angle_r	mtp_angle_r	hip_flexion_l	hip_adduction_l	hip_rotation_l	knee_angle_l	knee_angle_l_beta	ankle_angle_l	subtalar_angle_l	mtp_angle_l	L5_S1_Flex_Ext	L5_S1_Lat_Bending	L5_S1_axial_rotation	L4_L5_Flex_Ext	L4_L5_Lat_Bending	L4_L5_axial_rotation	L3_L4_Flex_Ext	L3_L4_Lat_Bending	L3_L4_axial_rotation	L2_L3_Flex_Ext	L2_L3_Lat_Bending	L2_L3_axial_rotation	L1_L2_Flex_Ext	L1_L2_Lat_Bending	L1_L2_axial_rotation	L1_T12_Flex_Ext	L1_T12_Lat_Bending	L1_T12_axial_rotation	Abs_r3	Abs_r2	Abs_r1	Abs_t1	Abs_t2	neck_flexion	neck_bending	neck_rotation	arm_flex_r	arm_add_r	arm_rot_r	elbow_flex_r	pro_sup_r	wrist_flex_r	wrist_dev_r	arm_flex_l	arm_add_l	arm_rot_l	elbow_flex_l	pro_sup_l	wrist_flex_l	wrist_dev_l
17.384615	1.512551	-1.794134	93.886591	0.178789	0.485042	0.988300	0.626266	2.721085	-12.402153	12.707104	0.221781	44.177646	16.856345	0.000000	-0.794937	-0.799595	-10.893280	10.607950	0.185144	43.610347	12.761245	0.000000	0.026949	0.722583	-0.668051	0.050046	0.961035	-0.709804	0.044274	1.756888	-0.709804	0.030800	1.756888	-0.584544	0.025024	1.473491	-0.542791	0.015398	1.119281	-0.501038	0.192491	8.174001	-3.715498	0.000000	0.000000	13.919482	-3.588615	10.002735	0.644588	-16.810756	57.414965	18.800354	53.796266	-6.462682	0.041217	2.363397	-10.881815	103.212021	16.618299	31.014943	-6.274629	0.520710
17.403846	1.520159	-1.740123	94.001103	0.178678	0.485164	0.988314	0.551915	2.746316	-12.490171	12.646523	0.220723	44.202533	16.859626	0.000000	-0.837270	-0.797421	-10.618145	10.578328	0.184627	43.635118	12.581787	0.000000	0.024026	0.724981	-0.702715	0.044619	0.964224	-0.746634	0.039473	1.762718	-0.746634	0.027459	1.762718	-0.614875	0.022311	1.478380	-0.570956	0.013729	1.122995	-0.527036	0.171616	8.201126	-3.908288	0.000000	0.000000	13.804620	-3.612151	10.147525	0.747883	-16.786438	57.852347	18.681516	53.558641	-6.371930	-0.040179	2.365855	-10.873177	103.107940	16.645131	30.630775	-6.145953	0.875003
17.423077	1.536408	-1.694811	94.141708	0.178529	0.485250	0.988276	0.490656	2.775274	-12.633737	12.604577	0.219991	44.240427	16.890293	0.000000	-0.870136	-0.804515	-10.308393	10.552147	0.184170	43.680305	12.381968	0.000000	0.022199	0.727877	-0.735068	0.041227	0.968076	-0.781010	0.036471	1.769759	-0.781010	0.025372	1.769759	-0.643185	0.020614	1.484286	-0.597243	0.012685	1.127481	-0.551301	0.158568	8.233886	-4.088229	0.000000	0.000000	13.729899	-3.630134	10.252270	0.813390	-16.766757	58.215105	18.573611	53.338513	-6.315133	-0.143312	2.349512	-10.893017	102.607666	16.715146	30.357951	-5.899279	1.278416
17.442308	1.552808	-1.651345	94.355034	0.178271	0.485308	0.988183	0.419396	2.802689	-12.852981	12.558461	0.219186	44.282464	16.923180	0.000000	-0.892999	-0.805614	-9.832970	10.535933	0.183887	43.729046	12.063675	0.000000	0.021148	0.730240	-0.776178	0.039273	0.971220	-0.824689	0.034743	1.775506	-0.824689	0.024170	1.775506	-0.679156	0.019638	1.489106	-0.630644	0.012084	1.131142	-0.582133	0.151055	8.260625	-4.316868	0.000000	0.000000	13.683618	-3.645538	10.310357	0.842278	-16.741720	58.455164	18.478583	53.172581	-6.328112	-0.239993	2.294693	-10.949848	101.606586	16.842089	30.145440	-5.527806	1.775593
17.461538	1.574795	-1.608083	94.587036	0.178006	0.485338	0.988021	0.343068	2.837779	-13.079426	12.518558	0.218490	44.320753	16.940659	0.000000	-0.912442	-0.829684	-9.480229	10.539503	0.183949	43.818306	11.910792	0.000000	0.020732	0.732578	-0.817892	0.038501	0.974329	-0.869010	0.034061	1.781191	-0.869010	0.023695	1.781191	-0.715656	0.019252	1.493874	-0.664537	0.011846	1.134764	-0.613419	0.148087	8.287072	-4.548871	0.000000	0.000000	13.651201	-3.651888	10.337965	0.857848	-16.713761	58.745861	18.378037	52.897703	-6.391733	-0.352859	2.234014	-11.020913	100.464390	16.972886	29.983879	-5.043951	2.247936
17.480769	1.599776	-1.562875	94.840743	0.177739	0.485338	0.987789	0.255719	2.878831	-13.320385	12.481171	0.217838	44.358552	16.947529	0.000000	-0.931637	-0.875949	-9.257042	10.566143	0.184414	43.943056	11.940198	0.000000	0.020795	0.734418	-0.862493	0.038618	0.976776	-0.916399	0.034164	1.785663	-0.916399	0.023767	1.785663	-0.754681	0.019310	1.497625	-0.700775	0.011882	1.137613	-0.646870	0.148537	8.307880	-4.796927	0.000000	0.000000	13.626589	-3.645958	10.337883	0.872386	-16.680520	59.139382	18.265253	52.488851	-6.490264	-0.488781	2.187512	-11.088641	99.460517	17.070585	29.865982	-4.488504	2.632474
17.500000	1.627286	-1.513490	95.128624	0.177445	0.485304	0.987484	0.153287	2.922566	-13.613970	12.448670	0.217270	44.402125	16.972701	0.000000	-0.959506	-0.923347	-8.947554	10.603559	0.185067	44.054165	11.897731	0.000000	0.021139	0.735653	-0.914622	0.039257	0.978418	-0.971786	0.034729	1.788666	-0.971786	0.024159	1.788666	-0.800294	0.019629	1.500143	-0.743130	0.012079	1.139526	-0.685967	0.150992	8.321849	-5.086854	0.000000	0.000000	13.607519	-3.627302	10.308668	0.890061	-16.644817	59.591922	18.155261	52.020068	-6.614012	-0.622858	2.138824	-11.152703	98.555581	17.132423	30.049742	-3.950964	2.920137
17.519231	1.660084	-1.460692	95.410609	0.177194	0.485234	0.987098	0.038096	2.976726	-13.889985	12.417562	0.216727	44.443887	16.979413	0.000000	-1.002649	-0.984578	-8.699315	10.658317	0.186023	44.155005	11.906298	0.000000	0.021436	0.736659	-0.968367	0.039808	0.979757	-1.028890	0.035217	1.791113	-1.028890	0.024499	1.791113	-0.847321	0.019905	1.502196	-0.786798	0.012248	1.141085	-0.726275	0.153114	8.333237	-5.385766	0.000000	0.000000	13.591464	-3.588424	10.276702	0.912771	-16.606625	60.061043	18.048836	51.548609	-6.722823	-0.748009	2.088394	-11.202311	97.923452	17.152570	30.231215	-3.480717	3.053514
17.538462	1.699665	-1.397620	95.685644	0.176978	0.485144	0.986644	-0.095823	3.040776	-14.173158	12.388456	0.216219	44.486615	16.999975	0.000000	-1.072624	-1.045085	-8.355317	10.715193	0.187015	44.201834	11.761073	0.000000	0.020732	0.737772	-1.022959	0.038502	0.981237	-1.086893	0.034061	1.793818	-1.086893	0.023695	1.793818	-0.895089	0.019252	1.504464	-0.831154	0.011846	1.142809	-0.767219	0.148088	8.345823	-5.689389	0.000000	0.000000	13.571823	-3.542767	10.226255	0.941475	-16.576592	60.526194	17.970107	51.069915	-6.827140	-0.842445	2.016023	-11.255105	97.343158	17.170642	30.528802	-3.128754	3.078425
17.557692	1.745113	-1.326368	95.957253	0.176813	0.485046	0.986138	-0.248993	3.117980	-14.448694	12.348773	0.215527	44.520972	17.012317	0.000000	-1.160696	-1.125215	-8.117316	10.786133	0.188254	44.225161	11.708654	0.000000	0.019517	0.738811	-1.079171	0.036245	0.982619	-1.146619	0.032065	1.796345	-1.146619	0.022306	1.796345	-0.944274	0.018124	1.506583	-0.876826	0.011152	1.144418	-0.809378	0.139409	8.357578	-6.002023	0.000000	0.000000	13.536604	-3.489253	10.163807	0.980710	-16.547465	60.960888	17.909296	50.640877	-6.905380	-0.895463	1.918115	-11.310306	96.797541	17.188418	30.740779	-2.839903	3.049486
17.576923	1.794671	-1.248318	96.207941	0.176681	0.484956	0.985596	-0.408706	3.202099	-14.702288	12.314090	0.214921	44.549577	17.016044	0.000000	-1.267839	-1.199626	-7.778804	10.847018	0.189316	44.197014	11.487326	0.000000	0.017745	0.740383	-1.130952	0.032954	0.984710	-1.201637	0.029153	1.800168	-1.201637	0.020281	1.800168	-0.989583	0.016478	1.509790	-0.918899	0.010139	1.146854	-0.848214	0.126749	8.375366	-6.290018	0.000000	0.000000	13.489617	-3.437396	10.099862	1.018853	-16.534327	61.341053	17.885407	50.260019	-6.963141	-0.905321	1.796944	-11.366601	96.206906	17.226828	30.962004	-2.684843	2.983554
17.596154	1.838401	-1.158121	96.419956	0.176649	0.484909	0.985033	-0.586176	3.284904	-14.933875	12.267676	0.214111	44.563639	17.032667	0.000000	-1.398276	-1.279121	-7.575859	10.899387	0.190230	44.167982	11.376601	0.000000	0.014635	0.741137	-1.174519	0.027178	0.985712	-1.247926	0.024043	1.801999	-1.247926	0.016726	1.801999	-1.027704	0.013590	1.511326	-0.954296	0.008362	1.148021	-0.880889	0.104533	8.383885	-6.532320	0.000000	0.000000	13.407320	-3.387016	10.034630	1.061404	-16.512777	61.668449	17.860448	49.924092	-6.977722	-0.873896	1.674422	-11.434566	95.650995	17.283734	31.094953	-2.567383	2.906536
17.615385	1.873898	-1.053259	96.593083	0.176690	0.484922	0.984470	-0.778795	3.363305	-15.132896	12.215317	0.213198	44.563250	17.056221	0.000000	-1.551439	-1.347325	-7.337936	10.927108	0.190714	44.128274	11.192940	0.000000	0.009973	0.741587	-1.209649	0.018521	0.986311	-1.285252	0.016384	1.803095	-1.285252	0.011398	1.803095	-1.058442	0.009261	1.512244	-0.982839	0.005698	1.148718	-0.907236	0.071235	8.388981	-6.727702	0.000000	0.000000	13.288109	-3.342105	10.003005	1.119931	-16.492172	62.032888	17.826932	49.593211	-6.933215	-0.790363	1.553849	-11.504329	95.150416	17.358260	31.070890	-2.518634	2.843643
17.634615	1.893944	-0.936652	96.674882	0.176885	0.485004	0.983915	-0.977770	3.435831	-15.160595	12.157992	0.212197	44.536337	16.990038	0.000000	-1.734213	-1.398198	-7.206826	10.913689	0.190480	44.100535	11.058941	0.000000	0.003876	0.740760	-1.226248	0.007198	0.985211	-1.302888	0.006368	1.801084	-1.302888	0.004430	1.801084	-1.072967	0.003599	1.510558	-0.996326	0.002215	1.147437	-0.919686	0.027686	8.379626	-6.820023	0.000000	0.000000	13.135289	-3.331565	9.952033	1.168384	-16.461397	62.322192	17.801435	49.278731	-6.866158	-0.629265	1.445892	-11.580621	94.729887	17.455543	30.987493	-2.564502	2.815156
